<svg data-v-423bf9ae="" xmlns="http://www.w3.org/2000/svg" viewBox="0 0 230.86238584124314 60" class="font"><!----><!----><!----><g data-v-423bf9ae="" id="0282c8d0-db26-4c9c-842e-07a0a886f7d4" fill="black" transform="matrix(5.504587348608571,0,0,5.504587348608571,-3.082570821801866,-15.467890611452226)"><path d="M4.65 6.29L4.65 6.29L4.65 6.29Q6.05 6.29 6.98 7.35L6.98 7.35L6.98 7.35Q7.91 8.41 7.91 9.95L7.91 9.95L7.91 12.42L7.91 12.42Q7.91 12.74 7.89 12.90L7.89 12.90L7.89 12.90Q7.87 13.06 7.76 13.27L7.76 13.27L7.76 13.27Q7.57 13.64 6.68 13.64L6.68 13.64L6.68 13.64Q5.82 13.64 5.61 13.27L5.61 13.27L5.61 13.27Q5.50 13.06 5.48 12.89L5.48 12.89L5.48 12.89Q5.46 12.73 5.46 12.39L5.46 12.39L5.46 9.94L5.46 9.94Q5.46 9.37 5.14 9.04L5.14 9.04L5.14 9.04Q4.82 8.72 4.32 8.72L4.32 8.72L4.32 8.72Q3.82 8.72 3.44 9.02L3.44 9.02L3.44 9.02Q3.07 9.32 3.01 9.70L3.01 9.70L3.01 12.42L3.01 12.42Q3.01 12.74 2.99 12.90L2.99 12.90L2.99 12.90Q2.97 13.06 2.86 13.27L2.86 13.27L2.86 13.27Q2.67 13.64 1.78 13.64L1.78 13.64L1.78 13.64Q0.90 13.64 0.70 13.26L0.70 13.26L0.70 13.26Q0.60 13.05 0.58 12.89L0.58 12.89L0.58 12.89Q0.56 12.74 0.56 12.40L0.56 12.40L0.56 4.03L0.56 4.03Q0.56 3.71 0.58 3.55L0.58 3.55L0.58 3.55Q0.60 3.39 0.70 3.19L0.70 3.19L0.70 3.19Q0.90 2.81 1.79 2.81L1.79 2.81L1.79 2.81Q2.67 2.81 2.86 3.19L2.86 3.19L2.86 3.19Q2.97 3.40 2.99 3.56L2.99 3.56L2.99 3.56Q3.01 3.72 3.01 4.05L3.01 4.05L3.01 7.14L3.01 7.14Q3.71 6.29 4.65 6.29ZM13.82 7.04L13.82 7.04L13.82 7.04Q13.90 6.26 14.92 6.26L14.92 6.26L14.92 6.26Q15.47 6.26 15.74 6.34L15.74 6.34L15.74 6.34Q16.00 6.43 16.11 6.64L16.11 6.64L16.11 6.64Q16.21 6.85 16.23 7.01L16.23 7.01L16.23 7.01Q16.25 7.17 16.25 7.49L16.25 7.49L16.25 12.39L16.25 12.39Q16.25 12.71 16.23 12.87L16.23 12.87L16.23 12.87Q16.21 13.03 16.11 13.24L16.11 13.24L16.11 13.24Q15.92 13.61 15.16 13.61L15.16 13.61L15.16 13.61Q14.39 13.61 14.13 13.42L14.13 13.42L14.13 13.42Q13.87 13.23 13.83 12.87L13.83 12.87L13.83 12.87Q13.31 13.61 12.10 13.61L12.10 13.61L12.10 13.61Q10.89 13.61 9.86 12.50L9.86 12.50L9.86 12.50Q8.82 11.40 8.82 9.93L8.82 9.93L8.82 9.93Q8.82 8.47 9.86 7.37L9.86 7.37L9.86 7.37Q10.91 6.27 12.15 6.27L12.15 6.27L12.15 6.27Q12.63 6.27 13.02 6.44L13.02 6.44L13.02 6.44Q13.41 6.61 13.57 6.76L13.57 6.76L13.57 6.76Q13.72 6.90 13.82 7.04ZM11.27 9.95L11.27 9.95L11.27 9.95Q11.27 10.42 11.63 10.79L11.63 10.79L11.63 10.79Q12.00 11.16 12.52 11.16L12.52 11.16L12.52 11.16Q13.03 11.16 13.38 10.78L13.38 10.78L13.38 10.78Q13.72 10.40 13.72 9.95L13.72 9.95L13.72 9.95Q13.72 9.49 13.39 9.10L13.39 9.10L13.39 9.10Q13.06 8.71 12.51 8.71L12.51 8.71L12.51 8.71Q11.96 8.71 11.61 9.10L11.61 9.10L11.61 9.10Q11.27 9.49 11.27 9.95ZM20.65 13.61L20.65 13.61L20.65 13.61Q19.24 13.61 18.30 12.54L18.30 12.54L18.30 12.54Q17.37 11.47 17.37 9.93L17.37 9.93L17.37 7.48L17.37 7.48Q17.37 7.14 17.39 6.99L17.39 6.99L17.39 6.99Q17.42 6.83 17.51 6.62L17.51 6.62L17.51 6.62Q17.71 6.24 18.61 6.24L18.61 6.24L18.61 6.24Q19.59 6.24 19.75 6.78L19.75 6.78L19.75 6.78Q19.84 7.00 19.84 7.49L19.84 7.49L19.84 9.94L19.84 9.94Q19.84 10.51 20.17 10.84L20.17 10.84L20.17 10.84Q20.50 11.16 21.05 11.16L21.05 11.16L21.05 11.16Q21.60 11.16 21.95 10.82L21.95 10.82L21.95 10.82Q22.29 10.49 22.29 9.94L22.29 9.94L22.29 7.46L22.29 7.46Q22.29 7.14 22.31 6.98L22.31 6.98L22.31 6.98Q22.33 6.82 22.44 6.61L22.44 6.61L22.44 6.61Q22.62 6.24 23.52 6.24L23.52 6.24L23.52 6.24Q24.40 6.24 24.60 6.62L24.60 6.62L24.60 6.62Q24.70 6.83 24.72 6.99L24.72 6.99L24.72 6.99Q24.74 7.15 24.74 7.48L24.74 7.48L24.74 12.43L24.74 12.43Q24.74 12.74 24.72 12.90L24.72 12.90L24.72 12.90Q24.70 13.06 24.58 13.26L24.58 13.26L24.58 13.26Q24.37 13.62 23.51 13.62L23.51 13.62L23.51 13.62Q22.65 13.62 22.46 13.29L22.46 13.29L22.46 13.29Q22.32 13.05 22.32 12.71L22.32 12.71L22.32 12.71Q22.26 12.81 22.06 12.99L22.06 12.99L22.06 12.99Q21.87 13.17 21.69 13.30L21.69 13.30L21.69 13.30Q21.21 13.61 20.65 13.61ZM29.96 6.26L29.96 6.26L29.96 6.26Q31.36 6.26 32.29 7.33L32.29 7.33L32.29 7.33Q33.22 8.40 33.22 9.94L33.22 9.94L33.22 12.40L33.22 12.40Q33.22 12.73 33.20 12.89L33.20 12.89L33.20 12.89Q33.18 13.05 33.08 13.24L33.08 13.24L33.08 13.24Q32.89 13.62 31.99 13.62L31.99 13.62L31.99 13.62Q31.00 13.62 30.84 13.10L30.84 13.10L30.84 13.10Q30.76 12.87 30.76 12.39L30.76 12.39L30.76 9.93L30.76 9.93Q30.76 9.35 30.43 9.03L30.43 9.03L30.43 9.03Q30.10 8.71 29.55 8.71L29.55 8.71L29.55 8.71Q28.99 8.71 28.65 9.04L28.65 9.04L28.65 9.04Q28.31 9.38 28.31 9.93L28.31 9.93L28.31 12.40L28.31 12.40Q28.31 12.73 28.29 12.89L28.29 12.89L28.29 12.89Q28.27 13.05 28.15 13.24L28.15 13.24L28.15 13.24Q27.97 13.62 27.08 13.62L27.08 13.62L27.08 13.62Q26.19 13.62 26.00 13.24L26.00 13.24L26.00 13.24Q25.90 13.03 25.88 12.87L25.88 12.87L25.88 12.87Q25.86 12.71 25.86 12.39L25.86 12.39L25.86 7.43L25.86 7.43Q25.86 7.13 25.88 6.97L25.88 6.97L25.88 6.97Q25.90 6.80 26.01 6.61L26.01 6.61L26.01 6.61Q26.21 6.26 27.09 6.26L27.09 6.26L27.09 6.26Q27.94 6.26 28.14 6.58L28.14 6.58L28.14 6.58Q28.28 6.82 28.28 7.15L28.28 7.15L28.28 7.15Q28.34 7.06 28.53 6.87L28.53 6.87L28.53 6.87Q28.73 6.69 28.91 6.58L28.91 6.58L28.91 6.58Q29.39 6.26 29.96 6.26ZM41.78 6.43L41.78 6.43L41.78 6.43Q42.50 6.86 42.50 7.35L42.50 7.35L42.50 7.35Q42.50 7.63 42.22 8.12L42.22 8.12L39.33 13.09L39.33 13.09Q39.19 13.33 38.88 13.52L38.88 13.52L38.88 13.52Q38.57 13.71 38.27 13.71L38.27 13.71L38.27 13.71Q37.97 13.71 37.70 13.56L37.70 13.56L37.70 13.56Q37.42 13.41 37.31 13.26L37.31 13.26L37.18 13.10L34.27 8.12L34.27 8.12Q33.99 7.66 33.99 7.36L33.99 7.36L33.99 7.36Q33.99 6.86 34.72 6.43L34.72 6.43L34.72 6.43Q35.25 6.12 35.56 6.12L35.56 6.12L35.56 6.12Q35.87 6.12 36.04 6.31L36.04 6.31L36.04 6.31Q36.22 6.50 36.41 6.87L36.41 6.87L38.25 10.40L40.08 6.87L40.08 6.87Q40.24 6.61 40.31 6.49L40.31 6.49L40.31 6.49Q40.39 6.37 40.56 6.25L40.56 6.25L40.56 6.25Q40.73 6.13 41.01 6.13L41.01 6.13L41.01 6.13Q41.29 6.13 41.78 6.43Z"></path></g><!----><!----></svg>