<svg width="40" height="40" viewBox="0 0 40 40" fill="none" xmlns="http://www.w3.org/2000/svg">
<g clip-path="url(#clip0)">
<path d="M37.977 37.1889L35.892 12.6037C35.7749 11.2673 34.6269 10.2074 33.2447 10.2074H28.0908V7.48848C28.1142 3.36406 24.6939 0 20.5004 0C16.307 0 12.8866 3.36406 12.8866 7.48848V10.2074H7.73269C6.37392 10.2074 5.20257 11.2673 5.08543 12.6037L3.00043 37.1889C2.93015 37.9032 3.18784 38.6406 3.67981 39.1705C4.17178 39.7005 4.89802 40 5.62426 40H35.3298C36.0794 40 36.7822 39.7005 37.2742 39.1705C37.7896 38.6175 38.0473 37.9032 37.977 37.1889ZM15.2059 7.48848C15.2059 4.63134 17.572 2.28111 20.5004 2.28111C23.4288 2.28111 25.7949 4.60829 25.7949 7.48848V10.2074H15.2059V7.48848ZM35.3532 37.7189H5.64768C5.46027 37.7189 5.3197 37.5576 5.3197 37.3733L7.40471 12.788C7.42814 12.6267 7.54527 12.5115 7.73269 12.5115H33.2682C33.4322 12.5115 33.5727 12.6267 33.5961 12.788L35.6812 37.3733C35.6812 37.5576 35.5406 37.7189 35.3532 37.7189Z" fill="#555555"/>
<path d="M15.2054 15.3917V12.5115H12.8861V15.4148C12.0896 15.8295 11.5508 16.659 11.5508 17.6037C11.5508 18.9632 12.6753 20.0691 14.0575 20.0691C15.4397 20.0691 16.5642 18.9632 16.5642 17.6037C16.5642 16.636 16.0019 15.8065 15.2054 15.3917Z" fill="#555555"/>
<path d="M28.1136 15.3917V12.5115H25.7943V15.4148C24.9978 15.8295 24.459 16.659 24.459 17.6037C24.459 18.9632 25.5835 20.0691 26.9657 20.0691C28.3479 20.0691 29.4724 18.9632 29.4724 17.6037C29.4489 16.636 28.9101 15.8065 28.1136 15.3917Z" fill="#555555"/>
</g>
<defs>
<clipPath id="clip0">
<rect width="35" height="40" fill="white" transform="translate(3)"/>
</clipPath>
</defs>
</svg>
